# xmcd CD database file
#
# Track frame offsets:
#	150
#	11747
#	20307
#	43557
#	58412
#	75807
#	89995
#	102435
#	123877
#	140845
#	168995
#	183502
#	203237
#	221102
#	222955
#	246890
#	248272
#	264315
#	266560
#	284455
#	293107
#	318550
#
# Disc length: 4362 seconds
#
# Revision: 1
# Processed by: cddbd v1.4PL0 Copyright (c) Steve Scherf et al.
# Submitted via: CDex 1.40Release
#
DISCID=4c110816
DTITLE=André Christovam - Sucessos em Dobro
DYEAR=1900
DGENRE=Blues
TTITLE0=Lighthouse
TTITLE1=Spear Dance
TTITLE2=Don't Ever Leave Me
TTITLE3=Calliope
TTITLE4=Hard Times Killing FLoor
TTITLE5=Bad Feeling
TTITLE6=Don't Tell Me (What You've Been Doing)
TTITLE7=Made Up My Mind
TTITLE8=Reverend Of High Sierras
TTITLE9=I've Got A Feeling
TTITLE10=Wolf and Sheep
TTITLE11=Leave My Money alone
TTITLE12=The Stumble
TTITLE13=Santa Cecilia
TTITLE14=Love Jar Blues
TTITLE15=EDO
TTITLE16=Flag Pole
TTITLE17=Tintagel
TTITLE18=One Kind Favor
TTITLE19=Oh Captain, My Captain
TTITLE20=Brown Candles
TTITLE21=Oh Captain, My Captain (extended)
EXTD=ID3G: 0
EXTT0=
EXTT1=
EXTT2=
EXTT3=
EXTT4=
EXTT5=
EXTT6=
EXTT7=
EXTT8=
EXTT9=
EXTT10=
EXTT11=
EXTT12=
EXTT13=
EXTT14=
EXTT15=
EXTT16=
EXTT17=
EXTT18=
EXTT19=
EXTT20=
EXTT21=
PLAYORDER=
